<svg width="18" height="19" viewBox="0 0 18 19" fill="none" xmlns="http://www.w3.org/2000/svg">
<path d="M0 2.91981C0 2.3426 0.202708 1.86641 0.608108 1.49124C1.01351 1.11605 1.54055 0.928467 2.18919 0.928467C2.82626 0.928467 3.34169 1.11316 3.73552 1.48258C4.14092 1.86353 4.34363 2.35991 4.34363 2.97176C4.34363 3.52587 4.14672 3.98762 3.7529 4.35704C3.3475 4.73799 2.81467 4.92847 2.15444 4.92847H2.13707C1.49999 4.92847 0.984562 4.73799 0.590734 4.35704C0.196905 3.97608 0 3.497 0 2.91981ZM0.225869 18.0713V6.50422H4.08301V18.0713H0.225869ZM6.22008 18.0713H10.0772V11.6124C10.0772 11.2084 10.1236 10.8967 10.2162 10.6774C10.3784 10.2849 10.6245 9.95298 10.9546 9.68171C11.2847 9.41042 11.6988 9.27478 12.1969 9.27478C13.4942 9.27478 14.1429 10.1464 14.1429 11.8895V18.0713H18V11.4393C18 9.73077 17.5946 8.43496 16.7838 7.55184C15.973 6.66872 14.9015 6.22717 13.5695 6.22717C12.0753 6.22717 10.9112 6.86786 10.0772 8.14924V8.18388H10.0598L10.0772 8.14924V6.50422H6.22008C6.24324 6.87362 6.25483 8.02225 6.25483 9.95011C6.25483 11.878 6.24324 14.585 6.22008 18.0713Z" fill="white"/>
</svg>
